# Blender v3.4.1 OBJ File: ''
# www.blender.org
mtllib Hub.mtl
o Cube.002
v -0.672492 -0.672492 0.672492
v -0.672492 0.672492 0.672492
v -0.672492 -0.672492 -0.672492
v -0.672492 0.672492 -0.672492
v 0.672492 -0.672492 0.672492
v 0.672492 0.672492 0.672492
v 0.672492 -0.672492 -0.672492
v 0.672492 0.672492 -0.672492
v -0.898200 -0.439006 0.439006
v -0.898200 0.439006 0.439006
v -0.898200 0.439006 -0.439006
v -0.898200 -0.439006 -0.439006
v -0.439006 -0.439006 -0.898200
v -0.439006 0.439006 -0.898200
v 0.439006 0.439006 -0.898200
v 0.439006 -0.439006 -0.898200
v 0.898200 -0.439006 -0.439006
v 0.898200 0.439006 -0.439006
v 0.898200 0.439006 0.439006
v 0.898200 -0.439006 0.439006
v 0.439006 -0.439006 0.898200
v 0.439006 0.439006 0.898200
v -0.439006 0.439006 0.898200
v -0.439006 -0.439006 0.898200
v -0.439006 -0.898200 -0.439006
v 0.439006 -0.898200 -0.439006
v 0.439006 -0.898200 0.439006
v -0.439006 -0.898200 0.439006
v 0.439006 0.898200 -0.439006
v -0.439006 0.898200 -0.439006
v -0.439006 0.898200 0.439006
v 0.439006 0.898200 0.439006
v -0.999979 -0.439006 0.439006
v -0.999979 0.439006 0.439006
v -0.999979 0.439006 -0.439006
v -0.999979 -0.439006 -0.439006
v -0.439006 -0.439006 -0.999979
v -0.439006 0.439006 -0.999979
v 0.439006 0.439006 -0.999979
v 0.439006 -0.439006 -0.999979
v 0.999979 -0.439006 -0.439006
v 0.999979 0.439006 -0.439006
v 0.999979 0.439006 0.439006
v 0.999979 -0.439006 0.439006
v 0.439006 -0.439006 0.999979
v 0.439006 0.439006 0.999979
v -0.439006 0.439006 0.999979
v -0.439006 -0.439006 0.999979
v -0.439006 -0.999979 -0.439006
v 0.439006 -0.999979 -0.439006
v 0.439006 -0.999979 0.439006
v -0.439006 -0.999979 0.439006
v 0.439006 0.999979 -0.439006
v -0.439006 0.999979 -0.439006
v -0.439006 0.999979 0.439006
v 0.439006 0.999979 0.439006
vt 0.375000 0.000000
vt 0.625000 0.000000
vt 0.625000 0.000000
vt 0.375000 0.000000
vt 0.625000 0.250000
vt 0.625000 0.250000
vt 0.375000 0.250000
vt 0.375000 0.250000
vt 0.625000 0.250000
vt 0.375000 0.250000
vt 0.625000 0.500000
vt 0.625000 0.500000
vt 0.375000 0.500000
vt 0.375000 0.500000
vt 0.625000 0.500000
vt 0.375000 0.500000
vt 0.625000 0.750000
vt 0.625000 0.750000
vt 0.375000 0.750000
vt 0.375000 0.750000
vt 0.625000 0.750000
vt 0.375000 0.750000
vt 0.625000 1.000000
vt 0.625000 1.000000
vt 0.375000 1.000000
vt 0.375000 1.000000
vt 0.125000 0.500000
vt 0.375000 0.500000
vt 0.125000 0.500000
vt 0.375000 0.750000
vt 0.125000 0.750000
vt 0.125000 0.750000
vt 0.875000 0.500000
vt 0.875000 0.500000
vt 0.625000 0.500000
vt 0.875000 0.750000
vt 0.875000 0.750000
vt 0.625000 0.750000
vt 0.375000 0.000000
vt 0.625000 0.000000
vt 0.625000 0.250000
vt 0.375000 0.250000
vt 0.375000 0.250000
vt 0.625000 0.250000
vt 0.625000 0.500000
vt 0.375000 0.500000
vt 0.375000 0.500000
vt 0.625000 0.500000
vt 0.625000 0.750000
vt 0.375000 0.750000
vt 0.375000 0.750000
vt 0.625000 0.750000
vt 0.625000 1.000000
vt 0.375000 1.000000
vt 0.125000 0.500000
vt 0.375000 0.500000
vt 0.375000 0.750000
vt 0.125000 0.750000
vt 0.625000 0.500000
vt 0.875000 0.500000
vt 0.875000 0.750000
vt 0.625000 0.750000
vn -0.7190 0.0000 0.6950
vn -0.7190 0.6950 0.0000
vn -0.7190 0.0000 -0.6950
vn -0.7190 -0.6950 0.0000
vn -0.6950 0.0000 -0.7190
vn 0.0000 0.6950 -0.7190
vn 0.6950 0.0000 -0.7190
vn 0.0000 -0.6950 -0.7190
vn 0.7190 0.0000 -0.6950
vn 0.7190 0.6950 0.0000
vn 0.7190 0.0000 0.6950
vn 0.7190 -0.6950 0.0000
vn 0.6950 0.0000 0.7190
vn 0.0000 0.6950 0.7190
vn -0.6950 0.0000 0.7190
vn 0.0000 -0.6950 0.7190
vn 0.0000 -0.7190 -0.6950
vn 0.6950 -0.7190 0.0000
vn 0.0000 -0.7190 0.6950
vn -0.6950 -0.7190 0.0000
vn 0.0000 0.7190 -0.6950
vn -0.6950 0.7190 0.0000
vn 0.0000 0.7190 0.6950
vn 0.6950 0.7190 0.0000
vn -1.0000 0.0000 0.0000
vn 0.0000 0.0000 1.0000
vn 0.0000 1.0000 0.0000
vn 0.0000 0.0000 -1.0000
vn 0.0000 -1.0000 0.0000
vn 1.0000 0.0000 0.0000
usemtl Material.001
s off
f 1/1/1 2/2/1 10/3/1 9/4/1
f 2/2/2 4/5/2 11/6/2 10/3/2
f 4/5/3 3/7/3 12/8/3 11/6/3
f 3/7/4 1/1/4 9/4/4 12/8/4
f 3/7/5 4/5/5 14/9/5 13/10/5
f 4/5/6 8/11/6 15/12/6 14/9/6
f 8/11/7 7/13/7 16/14/7 15/12/7
f 7/13/8 3/7/8 13/10/8 16/14/8
f 7/13/9 8/11/9 18/15/9 17/16/9
f 8/11/10 6/17/10 19/18/10 18/15/10
f 6/17/11 5/19/11 20/20/11 19/18/11
f 5/19/12 7/13/12 17/16/12 20/20/12
f 5/19/13 6/17/13 22/21/13 21/22/13
f 6/17/14 2/23/14 23/24/14 22/21/14
f 2/23/15 1/25/15 24/26/15 23/24/15
f 1/25/16 5/19/16 21/22/16 24/26/16
f 3/27/17 7/13/17 26/28/17 25/29/17
f 7/13/18 5/19/18 27/30/18 26/28/18
f 5/19/19 1/31/19 28/32/19 27/30/19
f 1/31/20 3/27/20 25/29/20 28/32/20
f 8/11/21 4/33/21 30/34/21 29/35/21
f 4/33/22 2/36/22 31/37/22 30/34/22
f 2/36/23 6/17/23 32/38/23 31/37/23
f 6/17/24 8/11/24 29/35/24 32/38/24
usemtl Material.002
f 33/39/25 34/40/25 35/41/25 36/42/25
f 10/3/26 34/40/26 33/39/26 9/4/26
f 11/6/27 35/41/27 34/40/27 10/3/27
f 12/8/28 36/42/28 35/41/28 11/6/28
f 9/4/29 33/39/29 36/42/29 12/8/29
f 37/43/28 38/44/28 39/45/28 40/46/28
f 14/9/25 38/44/25 37/43/25 13/10/25
f 15/12/27 39/45/27 38/44/27 14/9/27
f 16/14/30 40/46/30 39/45/30 15/12/30
f 13/10/29 37/43/29 40/46/29 16/14/29
f 41/47/30 42/48/30 43/49/30 44/50/30
f 18/15/28 42/48/28 41/47/28 17/16/28
f 19/18/27 43/49/27 42/48/27 18/15/27
f 20/20/26 44/50/26 43/49/26 19/18/26
f 17/16/29 41/47/29 44/50/29 20/20/29
f 45/51/26 46/52/26 47/53/26 48/54/26
f 22/21/30 46/52/30 45/51/30 21/22/30
f 23/24/27 47/53/27 46/52/27 22/21/27
f 24/26/25 48/54/25 47/53/25 23/24/25
f 21/22/29 45/51/29 48/54/29 24/26/29
f 49/55/29 50/56/29 51/57/29 52/58/29
f 26/28/28 50/56/28 49/55/28 25/29/28
f 27/30/30 51/57/30 50/56/30 26/28/30
f 28/32/26 52/58/26 51/57/26 27/30/26
f 25/29/25 49/55/25 52/58/25 28/32/25
f 53/59/27 54/60/27 55/61/27 56/62/27
f 30/34/28 54/60/28 53/59/28 29/35/28
f 31/37/25 55/61/25 54/60/25 30/34/25
f 32/38/26 56/62/26 55/61/26 31/37/26
f 29/35/30 53/59/30 56/62/30 32/38/30
