# Blender v3.4.1 OBJ File: 'SA2138 Modules.blend'
# www.blender.org
mtllib Hydrophonics.mtl
o Cube.005_Cube.002
v -0.854696 -0.432081 0.432081
v -0.854696 0.432081 0.432081
v -0.854696 -0.432081 -0.432081
v -0.854696 0.432081 -0.432081
v 0.854696 -0.432081 0.432081
v 0.854696 0.432081 0.432081
v 0.854696 -0.432081 -0.432081
v 0.854696 0.432081 -0.432081
v -1.005459 -0.270867 0.270867
v -1.005459 0.270867 0.270867
v -1.005459 0.270867 -0.270867
v -1.005459 -0.270867 -0.270867
v 1.005459 -0.270867 -0.270867
v 1.005459 0.270867 -0.270867
v 1.005459 0.270867 0.270867
v 1.005459 -0.270867 0.270867
v -1.129362 -0.270867 0.270867
v -1.129362 0.270867 0.270867
v -1.129362 0.270867 -0.270867
v -1.129362 -0.270867 -0.270867
v 1.129362 -0.270867 -0.270867
v 1.129362 0.270867 -0.270867
v 1.129362 0.270867 0.270867
v 1.129362 -0.270867 0.270867
v 0.000000 -0.432081 -0.432081
v 0.000000 0.432081 -0.432081
v 0.000000 -0.432081 0.432081
v 0.000000 0.432081 0.432081
v 0.427348 0.432081 -0.432081
v 0.427348 -0.432081 0.432081
v 0.427348 -0.432081 -0.432081
v 0.427348 0.432081 0.432081
v -0.427348 -0.432081 -0.432081
v -0.427348 0.432081 0.432081
v -0.427348 0.432081 -0.432081
v -0.427348 -0.432081 0.432081
v -0.213674 0.432081 -0.432081
v -0.213674 -0.432081 0.432081
v -0.213674 -0.432081 -0.432081
v -0.213674 0.432081 0.432081
v 0.213674 -0.432081 -0.432081
v 0.213674 0.432081 0.432081
v 0.213674 0.432081 -0.432081
v 0.213674 -0.432081 0.432081
v 0.106837 -0.432081 -0.432081
v 0.106837 0.432081 0.432081
v 0.106837 0.432081 -0.432081
v 0.106837 -0.432081 0.432081
v -0.106837 0.432081 -0.432081
v -0.106837 -0.432081 0.432081
v -0.106837 -0.432081 -0.432081
v -0.106837 0.432081 0.432081
v -0.320511 -0.432081 -0.432081
v -0.320511 0.432081 0.432081
v -0.320511 0.432081 -0.432081
v -0.320511 -0.432081 0.432081
v 0.320511 0.432081 -0.432081
v 0.320511 -0.432081 0.432081
v 0.320511 -0.432081 -0.432081
v 0.320511 0.432081 0.432081
vt 0.375000 0.437500
vt 0.625000 0.437500
vt 0.625000 0.500000
vt 0.375000 0.500000
vt 0.375000 0.937500
vt 0.625000 0.937500
vt 0.625000 1.000000
vt 0.375000 1.000000
vt 0.312500 0.500000
vt 0.375000 0.750000
vt 0.312500 0.750000
vt 0.812500 0.500000
vt 0.875000 0.500000
vt 0.875000 0.750000
vt 0.812500 0.750000
vt 0.625000 0.000000
vt 0.625000 0.000000
vt 0.375000 0.000000
vt 0.375000 0.000000
vt 0.625000 0.250000
vt 0.625000 0.250000
vt 0.375000 0.250000
vt 0.375000 0.250000
vt 0.625000 0.500000
vt 0.375000 0.500000
vt 0.625000 0.750000
vt 0.625000 0.750000
vt 0.375000 0.750000
vt 0.625000 0.812500
vt 0.375000 0.812500
vt 0.687500 0.500000
vt 0.687500 0.750000
vt 0.625000 0.312500
vt 0.375000 0.312500
vt 0.125000 0.500000
vt 0.187500 0.500000
vt 0.187500 0.750000
vt 0.125000 0.750000
vt 0.625000 0.000000
vt 0.375000 0.000000
vt 0.625000 0.250000
vt 0.375000 0.250000
vt 0.375000 0.500000
vt 0.625000 0.500000
vt 0.625000 0.750000
vt 0.375000 0.750000
vt 0.734375 0.500000
vt 0.750000 0.500000
vt 0.750000 0.750000
vt 0.734375 0.750000
vt 0.375000 0.859375
vt 0.625000 0.859375
vt 0.625000 0.875000
vt 0.375000 0.875000
vt 0.796875 0.500000
vt 0.796875 0.750000
vt 0.375000 0.921875
vt 0.625000 0.921875
vt 0.375000 0.890625
vt 0.625000 0.890625
vt 0.625000 0.906250
vt 0.375000 0.906250
vt 0.765625 0.500000
vt 0.781250 0.500000
vt 0.781250 0.750000
vt 0.765625 0.750000
vt 0.375000 0.828125
vt 0.625000 0.828125
vt 0.625000 0.843750
vt 0.375000 0.843750
vt 0.703125 0.500000
vt 0.718750 0.500000
vt 0.718750 0.750000
vt 0.703125 0.750000
vt 0.250000 0.500000
vt 0.265625 0.500000
vt 0.265625 0.750000
vt 0.250000 0.750000
vt 0.375000 0.375000
vt 0.625000 0.375000
vt 0.625000 0.390625
vt 0.375000 0.390625
vt 0.375000 0.343750
vt 0.625000 0.343750
vt 0.625000 0.359375
vt 0.375000 0.359375
vt 0.218750 0.500000
vt 0.234375 0.500000
vt 0.234375 0.750000
vt 0.218750 0.750000
vt 0.203125 0.500000
vt 0.203125 0.750000
vt 0.625000 0.328125
vt 0.375000 0.328125
vt 0.375000 0.406250
vt 0.625000 0.406250
vt 0.625000 0.421875
vt 0.375000 0.421875
vt 0.281250 0.500000
vt 0.296875 0.500000
vt 0.296875 0.750000
vt 0.281250 0.750000
vn 0.0000 0.0000 -1.0000
vn 0.0000 0.0000 1.0000
vn 0.0000 -1.0000 0.0000
vn 0.0000 1.0000 0.0000
vn -0.7304 0.0000 0.6830
vn -0.7304 0.6830 0.0000
vn -0.7304 0.0000 -0.6830
vn -0.7304 -0.6830 0.0000
vn 0.7304 0.0000 -0.6830
vn 0.7304 0.6830 0.0000
vn 0.7304 0.0000 0.6830
vn 0.7304 -0.6830 0.0000
vn -1.0000 0.0000 0.0000
vn 1.0000 0.0000 0.0000
usemtl Material
s off
f 31/1/1 29/2/1 8/3/1 7/4/1
f 36/5/2 34/6/2 2/7/2 1/8/2
f 31/9/3 7/4/3 5/10/3 30/11/3
f 35/12/4 4/13/4 2/14/4 34/15/4
f 2/16/5 10/17/5 9/18/5 1/19/5
f 4/20/6 11/21/6 10/17/6 2/16/6
f 3/22/7 12/23/7 11/21/7 4/20/7
f 1/19/8 9/18/8 12/23/8 3/22/8
f 8/3/9 14/24/9 13/25/9 7/4/9
f 6/26/10 15/27/10 14/24/10 8/3/10
f 5/10/11 16/28/11 15/27/11 6/26/11
f 7/4/12 13/25/12 16/28/12 5/10/12
f 5/10/2 6/26/2 32/29/2 30/30/2
f 8/3/4 29/31/4 32/32/4 6/26/4
f 3/22/1 4/20/1 35/33/1 33/34/1
f 3/35/3 33/36/3 36/37/3 1/38/3
usemtl PortMaterial
f 10/17/2 18/39/2 17/40/2 9/18/2
f 17/40/13 18/39/13 19/41/13 20/42/13
f 11/21/4 19/41/4 18/39/4 10/17/4
f 12/23/1 20/42/1 19/41/1 11/21/1
f 9/18/3 17/40/3 20/42/3 12/23/3
f 21/43/14 22/44/14 23/45/14 24/46/14
f 14/24/1 22/44/1 21/43/1 13/25/1
f 15/27/4 23/45/4 22/44/4 14/24/4
f 16/28/2 24/46/2 23/45/2 15/27/2
f 13/25/3 21/43/3 24/46/3 16/28/3
f 47/47/4 26/48/4 28/49/4 46/50/4
f 48/51/2 46/52/2 28/53/2 27/54/2
f 55/55/4 35/12/4 34/15/4 54/56/4
f 56/57/2 54/58/2 34/6/2 36/5/2
f 50/59/2 52/60/2 40/61/2 38/62/2
f 49/63/4 37/64/4 40/65/4 52/66/4
f 58/67/2 60/68/2 42/69/2 44/70/2
f 57/71/4 43/72/4 42/73/4 60/74/4
f 25/75/3 45/76/3 48/77/3 27/78/3
f 25/79/1 26/80/1 47/81/1 45/82/1
f 39/83/1 37/84/1 49/85/1 51/86/1
f 39/87/3 51/88/3 50/89/3 38/90/3
f 33/36/3 53/91/3 56/92/3 36/37/3
f 33/34/1 35/33/1 55/93/1 53/94/1
f 41/95/1 43/96/1 57/97/1 59/98/1
f 41/99/3 59/100/3 58/101/3 44/102/3
usemtl Material.006
f 51/88/3 25/75/3 27/78/3 50/89/3
f 51/86/1 49/85/1 26/80/1 25/79/1
f 59/100/3 31/9/3 30/11/3 58/101/3
f 59/98/1 57/97/1 29/2/1 31/1/1
f 53/94/1 55/93/1 37/84/1 39/83/1
f 53/91/3 39/87/3 38/90/3 56/92/3
f 45/82/1 47/81/1 43/96/1 41/95/1
f 45/76/3 41/99/3 44/102/3 48/77/3
f 44/70/2 42/69/2 46/52/2 48/51/2
f 43/72/4 47/47/4 46/50/4 42/73/4
f 26/48/4 49/63/4 52/66/4 28/49/4
f 27/54/2 28/53/2 52/60/2 50/59/2
f 38/62/2 40/61/2 54/58/2 56/57/2
f 37/64/4 55/55/4 54/56/4 40/65/4
f 29/31/4 57/71/4 60/74/4 32/32/4
f 30/30/2 32/29/2 60/68/2 58/67/2
