# Blender v3.4.1 OBJ File: 'SA2138 Modules.blend'
# www.blender.org
mtllib Solar_Square.mtl
o Solar_Square_Cube.007
v -0.417938 -0.270871 0.270871
v -0.417938 0.270871 0.270871
v -0.417938 -0.270871 -0.270871
v -0.417938 0.270871 -0.270871
v 0.459042 -0.438490 0.438490
v 0.459042 0.438490 0.438490
v 0.459042 -0.438490 -0.438490
v 0.459042 0.438490 -0.438490
v -0.417938 -0.438490 -0.438490
v -0.417938 -0.438490 0.438490
v -0.417938 0.438490 0.438490
v -0.417938 0.438490 -0.438490
v -0.543221 -0.270871 -0.270871
v -0.543221 -0.270871 0.270871
v -0.543221 0.270871 0.270871
v -0.543221 0.270871 -0.270871
v 0.041192 0.438490 -0.438490
v -0.000088 0.438490 -0.438490
v -0.000088 0.438490 0.438490
v 0.041192 0.438490 0.438490
v -0.000088 -0.438490 -0.438490
v 0.041192 -0.438490 -0.438490
v 0.041192 -0.438490 0.438490
v -0.000088 -0.438490 0.438490
v -0.000088 3.028378 0.438490
v 0.041192 3.028378 0.438490
v 0.041192 3.028378 -0.438490
v -0.000088 3.028378 -0.438490
v -0.000088 0.438490 3.028378
v -0.000088 -0.438490 3.028378
v 0.041192 -0.438490 3.028378
v 0.041192 0.438490 3.028378
v -0.000088 -0.438490 -3.028378
v -0.000088 0.438490 -3.028378
v 0.041192 0.438490 -3.028378
v 0.041192 -0.438490 -3.028378
v -0.000088 -3.028378 -0.438490
v 0.041192 -3.028378 -0.438490
v 0.041192 -3.028378 0.438490
v -0.000088 -3.028378 0.438490
vt 0.375000 0.500000
vt 0.625000 0.500000
vt 0.625000 0.750000
vt 0.375000 0.750000
vt 0.422783 0.047783
vt 0.422783 0.202217
vt 0.375000 0.250000
vt 0.375000 0.000000
vt 0.577217 0.047783
vt 0.625000 0.000000
vt 0.577217 0.202217
vt 0.625000 0.250000
vt 0.375000 0.380884
vt 0.625000 0.380884
vt 0.755884 0.500000
vt 0.875000 0.500000
vt 0.875000 0.750000
vt 0.755884 0.750000
vt 0.375000 0.880884
vt 0.625000 0.880884
vt 0.625000 1.000000
vt 0.375000 1.000000
vt 0.744116 0.500000
vt 0.744116 0.750000
vt 0.625000 0.369116
vt 0.375000 0.369116
vt 0.255884 0.500000
vt 0.255884 0.750000
vt 0.625000 0.869116
vt 0.375000 0.869116
vt 0.125000 0.500000
vt 0.244116 0.500000
vt 0.244116 0.750000
vt 0.125000 0.750000
vt 0.577217 0.202217
vt 0.577217 0.047783
vt 0.422783 0.047783
vt 0.422783 0.202217
vt 0.755884 0.750000
vt 0.744116 0.750000
vt 0.744116 0.500000
vt 0.755884 0.500000
vt 0.625000 0.880884
vt 0.375000 0.880884
vt 0.255884 0.750000
vt 0.625000 0.869116
vt 0.375000 0.369116
vt 0.625000 0.369116
vt 0.744116 0.500000
vt 0.375000 0.380884
vt 0.244116 0.500000
vt 0.255884 0.500000
vt 0.255884 0.750000
vt 0.244116 0.750000
vn 1.0000 0.0000 0.0000
vn -1.0000 0.0000 0.0000
vn 0.0000 0.0000 -1.0000
vn 0.0000 1.0000 0.0000
vn 0.0000 0.0000 1.0000
vn 0.0000 -1.0000 0.0000
usemtl Material.001
s off
f 7/1/1 8/2/1 6/3/1 5/4/1
f 1/5/2 3/6/2 9/7/2 10/8/2
f 2/9/2 1/5/2 10/8/2 11/10/2
f 4/11/2 2/9/2 11/10/2 12/12/2
f 3/6/2 4/11/2 12/12/2 9/7/2
f 22/13/3 17/14/3 8/2/3 7/1/3
f 18/15/4 12/16/4 11/17/4 19/18/4
f 24/19/5 19/20/5 11/21/5 10/22/5
f 8/2/4 17/23/4 20/24/4 6/3/4
f 9/7/3 12/12/3 18/25/3 21/26/3
f 22/27/6 7/1/6 5/4/6 23/28/6
f 5/4/5 6/3/5 20/29/5 23/30/5
f 9/31/6 21/32/6 24/33/6 10/34/6
usemtl Material.002
f 2/9/4 4/11/4 16/35/4 15/36/4
f 14/37/2 15/36/2 16/35/2 13/38/2
f 3/6/6 1/5/6 14/37/6 13/38/6
f 4/11/3 3/6/3 13/38/3 16/35/3
f 1/5/5 2/9/5 15/36/5 14/37/5
usemtl Material.008
f 25/39/4 26/40/4 27/41/4 28/42/4
f 20/24/5 26/40/5 25/39/5 19/18/5
f 17/23/1 27/41/1 26/40/1 20/24/1
f 18/15/3 28/42/3 27/41/3 17/23/3
f 19/18/2 25/39/2 28/42/2 18/15/2
f 29/43/5 30/44/5 31/45/5 32/46/5
f 24/19/2 30/44/2 29/43/2 19/20/2
f 23/28/6 31/45/6 30/44/6 24/19/6
f 20/29/1 32/46/1 31/45/1 23/28/1
f 19/20/4 29/43/4 32/46/4 20/29/4
f 33/47/3 34/48/3 35/49/3 36/50/3
f 18/25/2 34/48/2 33/47/2 21/26/2
f 17/23/4 35/49/4 34/48/4 18/25/4
f 22/13/1 36/50/1 35/49/1 17/23/1
f 21/26/6 33/47/6 36/50/6 22/13/6
f 37/51/6 38/52/6 39/53/6 40/54/6
f 22/27/3 38/52/3 37/51/3 21/32/3
f 23/28/1 39/53/1 38/52/1 22/27/1
f 24/33/5 40/54/5 39/53/5 23/28/5
f 21/32/2 37/51/2 40/54/2 24/33/2
