# Blender v3.4.1 OBJ File: 'SA2138 Modules.blend'
# www.blender.org
mtllib Solar_Square.mtl
o Solar_Square_Cube.007
v -0.438490 -0.270871 0.270871
v -0.438490 0.270871 0.270871
v -0.438490 -0.270871 -0.270871
v -0.438490 0.270871 -0.270871
v 0.438490 -0.438490 0.438490
v 0.438490 0.438490 0.438490
v 0.438490 -0.438490 -0.438490
v 0.438490 0.438490 -0.438490
v -0.438490 -0.438490 -0.438490
v -0.438490 -0.438490 0.438490
v -0.438490 0.438490 0.438490
v -0.438490 0.438490 -0.438490
v -0.563773 -0.270871 -0.270871
v -0.563773 -0.270871 0.270871
v -0.563773 0.270871 0.270871
v -0.563773 0.270871 -0.270871
v 0.020640 0.517540 -0.359441
v -0.020640 0.359441 -0.517540
v -0.020640 0.359441 0.517540
v 0.020640 0.359441 0.517540
v -0.020640 -0.517540 -0.359441
v 0.020640 -0.517540 -0.359441
v 0.020640 -0.359441 0.517540
v -0.020640 -0.517540 0.359441
v -0.020640 2.949328 0.359441
v 0.020640 2.949328 0.359441
v 0.020640 2.949328 -0.359441
v -0.020640 2.949328 -0.359441
v -0.020640 0.359441 2.949328
v -0.020640 -0.359441 2.949328
v 0.020640 -0.359441 2.949328
v 0.020640 0.359441 2.949328
v -0.020640 -0.359441 -2.949328
v -0.020640 0.359441 -2.949328
v 0.020640 0.359441 -2.949328
v 0.020640 -0.359441 -2.949328
v -0.020640 -2.949328 -0.359441
v 0.020640 -2.949328 -0.359441
v 0.020640 -2.949328 0.359441
v -0.020640 -2.949328 0.359441
v 0.020640 3.028378 -0.438490
v 0.020640 -0.438490 -0.438490
v 0.020640 -0.359441 -0.517540
v 0.020640 0.438490 -0.438490
v 0.020640 0.359441 -0.517540
v -0.020640 0.438490 0.438490
v -0.020640 0.517540 0.359441
v -0.020640 0.438490 -0.438490
v -0.020640 0.517540 -0.359441
v -0.020640 -0.438490 0.438490
v -0.020640 -0.359441 0.517540
v 0.020640 0.438490 0.438490
v 0.020640 0.517540 0.359441
v -0.020640 -0.438490 -0.438490
v -0.020640 -0.359441 -0.517540
v 0.020640 -0.438490 0.438490
v 0.020640 -0.517540 0.359441
v 0.020640 3.028378 0.438490
v -0.020640 3.028378 0.438490
v -0.020640 3.028378 -0.438490
v -0.020640 -0.438490 3.028378
v -0.020640 0.438490 3.028378
v 0.020640 0.438490 3.028378
v 0.020640 -0.438490 3.028378
v -0.020640 0.438490 -3.028378
v -0.020640 -0.438490 -3.028378
v 0.020640 -0.438490 -3.028378
v 0.020640 0.438490 -3.028378
v 0.020640 -3.028378 0.438490
v 0.020640 -3.028378 -0.438490
v -0.020640 -3.028378 -0.438490
v -0.020640 -3.028378 0.438490
vt 0.375000 0.500000
vt 0.625000 0.500000
vt 0.625000 0.750000
vt 0.375000 0.750000
vt 0.422783 0.047783
vt 0.422783 0.202217
vt 0.375000 0.250000
vt 0.375000 0.000000
vt 0.577217 0.047783
vt 0.625000 0.000000
vt 0.577217 0.202217
vt 0.625000 0.250000
vt 0.375000 0.380884
vt 0.625000 0.380884
vt 0.755884 0.500000
vt 0.875000 0.500000
vt 0.875000 0.750000
vt 0.755884 0.750000
vt 0.375000 0.880884
vt 0.625000 0.880884
vt 0.625000 1.000000
vt 0.375000 1.000000
vt 0.744116 0.500000
vt 0.744116 0.750000
vt 0.625000 0.369116
vt 0.375000 0.369116
vt 0.255884 0.500000
vt 0.255884 0.750000
vt 0.625000 0.869116
vt 0.375000 0.869116
vt 0.125000 0.500000
vt 0.244116 0.500000
vt 0.244116 0.750000
vt 0.125000 0.750000
vt 0.577217 0.202217
vt 0.577217 0.047783
vt 0.422783 0.047783
vt 0.422783 0.202217
vt 0.744116 0.522535
vt 0.744116 0.522535
vt 0.744116 0.727465
vt 0.744116 0.727465
vt 0.755884 0.727465
vt 0.755884 0.727465
vt 0.755884 0.522535
vt 0.755884 0.522535
vt 0.397535 0.880884
vt 0.397535 0.880884
vt 0.602465 0.880884
vt 0.602465 0.880884
vt 0.591728 0.858379
vt 0.591728 0.858379
vt 0.289155 0.760737
vt 0.289155 0.760737
vt 0.602465 0.369116
vt 0.602465 0.369116
vt 0.397535 0.369116
vt 0.397535 0.369116
vt 0.408272 0.391621
vt 0.408272 0.391621
vt 0.710845 0.489263
vt 0.710845 0.489263
vt 0.255884 0.727465
vt 0.255884 0.727465
vt 0.255884 0.522535
vt 0.255884 0.522535
vt 0.244116 0.522535
vt 0.244116 0.522535
vt 0.244116 0.727465
vt 0.244116 0.727465
vt 0.755884 0.750000
vt 0.744116 0.750000
vt 0.744116 0.500000
vt 0.755884 0.500000
vt 0.625000 0.880884
vt 0.375000 0.880884
vt 0.255884 0.750000
vt 0.625000 0.869116
vt 0.375000 0.369116
vt 0.625000 0.369116
vt 0.744116 0.500000
vt 0.375000 0.380884
vt 0.244116 0.500000
vt 0.255884 0.500000
vt 0.255884 0.750000
vt 0.244116 0.750000
vn 1.0000 0.0000 0.0000
vn -1.0000 0.0000 0.0000
vn 0.0000 0.0000 -1.0000
vn 0.0000 1.0000 0.0000
vn 0.0000 0.0000 1.0000
vn 0.0000 -1.0000 0.0000
usemtl Material
s off
f 7/1/1 8/2/1 6/3/1 5/4/1
f 1/5/2 3/6/2 9/7/2 10/8/2
f 2/9/2 1/5/2 10/8/2 11/10/2
f 4/11/2 2/9/2 11/10/2 12/12/2
f 3/6/2 4/11/2 12/12/2 9/7/2
f 42/13/3 44/14/3 8/2/3 7/1/3
f 48/15/4 12/16/4 11/17/4 46/18/4
f 50/19/5 46/20/5 11/21/5 10/22/5
f 8/2/4 44/23/4 52/24/4 6/3/4
f 9/7/3 12/12/3 48/25/3 54/26/3
f 42/27/6 7/1/6 5/4/6 56/28/6
f 5/4/5 6/3/5 52/29/5 56/30/5
f 9/31/6 54/32/6 50/33/6 10/34/6
usemtl PortMaterial
f 2/9/4 4/11/4 16/35/4 15/36/4
f 14/37/2 15/36/2 16/35/2 13/38/2
f 3/6/6 1/5/6 14/37/6 13/38/6
f 4/11/3 3/6/3 13/38/3 16/35/3
f 1/5/5 2/9/5 15/36/5 14/37/5
usemtl Solar_Pannel
f 17/39/1 27/40/1 26/41/1 53/42/1
f 47/43/2 25/44/2 28/45/2 49/46/2
f 51/47/2 30/48/2 29/49/2 19/50/2
f 20/51/1 32/52/1 31/53/1 23/54/1
f 18/55/2 34/56/2 33/57/2 55/58/2
f 43/59/1 36/60/1 35/61/1 45/62/1
f 57/63/1 39/64/1 38/65/1 22/66/1
f 21/67/2 37/68/2 40/69/2 24/70/2
f 43/59/1 45/62/1 44/23/1 42/13/1
f 47/43/2 49/46/2 48/15/2 46/18/2
f 51/47/2 19/50/2 46/20/2 50/19/2
f 17/39/1 53/42/1 52/24/1 44/23/1
f 18/55/2 55/58/2 54/26/2 48/25/2
f 57/63/1 22/66/1 42/27/1 56/28/1
f 20/51/1 23/54/1 56/28/1 52/29/1
f 21/67/2 24/70/2 50/33/2 54/32/2
usemtl Solar_Pannel_Frame
f 59/71/4 58/72/4 41/73/4 60/74/4
f 52/24/5 58/72/5 59/71/5 46/18/5
f 48/15/3 60/74/3 41/73/3 44/23/3
f 62/75/5 61/76/5 64/77/5 63/78/5
f 56/28/6 64/77/6 61/76/6 50/19/6
f 46/20/4 62/75/4 63/78/4 52/29/4
f 66/79/3 65/80/3 68/81/3 67/82/3
f 44/23/4 68/81/4 65/80/4 48/25/4
f 54/26/6 66/79/6 67/82/6 42/13/6
f 71/83/6 70/84/6 69/85/6 72/86/6
f 42/27/3 70/84/3 71/83/3 54/32/3
f 50/33/5 72/86/5 69/85/5 56/28/5
f 26/41/1 27/40/1 41/73/1 58/72/1
f 28/45/2 25/44/2 59/71/2 60/74/2
f 53/42/1 26/41/1 58/72/1 52/24/1
f 25/44/2 47/43/2 46/18/2 59/71/2
f 27/40/1 17/39/1 44/23/1 41/73/1
f 49/46/2 28/45/2 60/74/2 48/15/2
f 29/49/2 30/48/2 61/76/2 62/75/2
f 31/53/1 32/52/1 63/78/1 64/77/1
f 30/48/2 51/47/2 50/19/2 61/76/2
f 19/50/2 29/49/2 62/75/2 46/20/2
f 23/54/1 31/53/1 64/77/1 56/28/1
f 32/52/1 20/51/1 52/29/1 63/78/1
f 33/57/2 34/56/2 65/80/2 66/79/2
f 35/61/1 36/60/1 67/82/1 68/81/1
f 34/56/2 18/55/2 48/25/2 65/80/2
f 55/58/2 33/57/2 66/79/2 54/26/2
f 45/62/1 35/61/1 68/81/1 44/23/1
f 36/60/1 43/59/1 42/13/1 67/82/1
f 38/65/1 39/64/1 69/85/1 70/84/1
f 40/69/2 37/68/2 71/83/2 72/86/2
f 22/66/1 38/65/1 70/84/1 42/27/1
f 37/68/2 21/67/2 54/32/2 71/83/2
f 39/64/1 57/63/1 56/28/1 69/85/1
f 24/70/2 40/69/2 72/86/2 50/33/2
