# Blender v3.4.1 OBJ File: 'SA2138 Modules.blend'
# www.blender.org
mtllib Solar_Large.mtl
o Solar_Large_Cube.009
v -0.689058 -0.270871 0.270871
v -0.689058 0.270871 0.270871
v -0.689058 -0.270871 -0.270871
v -0.689058 0.270871 -0.270871
v -0.689058 -0.438490 -0.438490
v -0.689058 -0.438490 0.438490
v -0.689058 0.438490 0.438490
v -0.689058 0.438490 -0.438490
v -0.814341 -0.270871 -0.270871
v -0.814341 -0.270871 0.270871
v -0.814341 0.270871 0.270871
v -0.814341 0.270871 -0.270871
v 0.689058 0.270871 0.270871
v 0.689058 -0.270871 0.270871
v 0.689058 0.270871 -0.270871
v 0.689058 -0.270871 -0.270871
v 0.689058 0.438490 -0.438490
v 0.689058 0.438490 0.438490
v 0.689058 -0.438490 0.438490
v 0.689058 -0.438490 -0.438490
v 0.814341 0.270871 -0.270871
v 0.814341 0.270871 0.270871
v 0.814341 -0.270871 0.270871
v 0.814341 -0.270871 -0.270871
v 0.020640 -0.343852 -0.533129
v -0.020640 -0.343852 -0.533129
v 0.020640 0.343852 -0.533129
v -0.020640 0.343852 -0.533129
v 0.020640 0.343852 0.533129
v -0.020640 0.343852 0.533129
v 0.020640 -0.343852 0.533129
v -0.020640 -0.343852 0.533129
v -0.020640 -0.343852 -5.520161
v 0.020640 -0.343852 -5.520161
v 0.020640 0.343852 -5.520161
v -0.020640 0.343852 -5.520161
v -0.020640 0.343852 5.520161
v 0.020640 0.343852 5.520161
v 0.020640 -0.343852 5.520161
v -0.020640 -0.343852 5.520161
v 0.020640 0.438490 -0.438490
v 0.020640 -0.438490 -0.438490
v -0.020640 -0.438490 -0.438490
v -0.020640 0.438490 -0.438490
v 0.020640 -0.438490 0.438490
v 0.020640 0.438490 0.438490
v -0.020640 0.438490 0.438490
v -0.020640 -0.438490 0.438490
v 0.020640 0.438490 -5.614799
v 0.020640 -0.438490 -5.614799
v -0.020640 -0.438490 -5.614799
v -0.020640 0.438490 -5.614799
v 0.020640 -0.438490 5.614799
v 0.020640 0.438490 5.614799
v -0.020640 0.438490 5.614799
v -0.020640 -0.438490 5.614799
vt 0.422783 0.047783
vt 0.422783 0.202217
vt 0.375000 0.250000
vt 0.375000 0.000000
vt 0.577217 0.047783
vt 0.625000 0.000000
vt 0.577217 0.202217
vt 0.625000 0.250000
vt 0.422783 0.047783
vt 0.422783 0.202217
vt 0.375000 0.250000
vt 0.375000 0.000000
vt 0.577217 0.047783
vt 0.625000 0.000000
vt 0.577217 0.202217
vt 0.625000 0.250000
vt 0.496256 0.250000
vt 0.503744 0.250000
vt 0.503744 0.250000
vt 0.496256 0.250000
vt 0.503744 0.000000
vt 0.496256 0.000000
vt 0.496256 0.000000
vt 0.503744 0.000000
vt 0.577217 0.202217
vt 0.577217 0.047783
vt 0.422783 0.047783
vt 0.422783 0.202217
vt 0.577217 0.202217
vt 0.577217 0.047783
vt 0.422783 0.047783
vt 0.422783 0.202217
vt 0.497064 0.250000
vt 0.502936 0.250000
vt 0.502936 0.250000
vt 0.497064 0.250000
vt 0.497064 0.250000
vt 0.502936 0.250000
vt 0.502936 0.250000
vt 0.497064 0.250000
vt 0.502936 0.000000
vt 0.497064 0.000000
vt 0.497064 0.000000
vt 0.502936 0.000000
vt 0.502936 0.000000
vt 0.497064 0.000000
vt 0.497064 0.000000
vt 0.502936 0.000000
vt 0.496256 0.250000
vt 0.503744 0.250000
vt 0.496256 0.250000
vt 0.503744 0.250000
vt 0.503744 0.000000
vt 0.496256 0.000000
vt 0.503744 0.000000
vt 0.496256 0.000000
vn -1.0000 0.0000 0.0000
vn 1.0000 0.0000 0.0000
vn 0.0000 0.0000 -1.0000
vn 0.0000 0.0000 1.0000
vn 0.0000 -1.0000 0.0000
vn -0.0000 1.0000 0.0000
usemtl Material
s off
f 1/1/1 3/2/1 5/3/1 6/4/1
f 2/5/1 1/1/1 6/4/1 7/6/1
f 4/7/1 2/5/1 7/6/1 8/8/1
f 3/2/1 4/7/1 8/8/1 5/3/1
f 13/9/2 15/10/2 17/11/2 18/12/2
f 14/13/2 13/9/2 18/12/2 19/14/2
f 16/15/2 14/13/2 19/14/2 20/16/2
f 15/10/2 16/15/2 20/16/2 17/11/2
f 41/17/3 17/11/3 20/16/3 42/18/3
f 8/8/3 44/19/3 43/20/3 5/3/3
f 45/21/4 19/14/4 18/12/4 46/22/4
f 6/4/4 48/23/4 47/24/4 7/6/4
f 6/4/5 5/3/5 43/20/5 48/23/5
f 19/14/5 45/21/5 42/18/5 20/16/5
f 18/12/6 17/11/6 41/17/6 46/22/6
f 47/24/6 46/22/6 41/17/6 44/19/6
f 43/20/5 42/18/5 45/21/5 48/23/5
f 7/6/6 47/24/6 44/19/6 8/8/6
usemtl PortMaterial
f 2/5/6 4/7/6 12/25/6 11/26/6
f 10/27/1 11/26/1 12/25/1 9/28/1
f 3/2/5 1/1/5 10/27/5 9/28/5
f 4/7/3 3/2/3 9/28/3 12/25/3
f 1/1/4 2/5/4 11/26/4 10/27/4
f 14/13/5 16/15/5 24/29/5 23/30/5
f 22/31/2 23/30/2 24/29/2 21/32/2
f 15/10/6 13/9/6 22/31/6 21/32/6
f 16/15/3 15/10/3 21/32/3 24/29/3
f 13/9/4 14/13/4 23/30/4 22/31/4
usemtl Solar_Pannel
f 27/33/2 25/34/2 34/35/2 35/36/2
f 26/37/1 28/38/1 36/39/1 33/40/1
f 31/41/2 29/42/2 38/43/2 39/44/2
f 30/45/1 32/46/1 40/47/1 37/48/1
f 27/33/2 41/17/2 42/18/2 25/34/2
f 26/37/1 43/20/1 44/19/1 28/38/1
f 31/41/2 45/21/2 46/22/2 29/42/2
f 30/45/1 47/24/1 48/23/1 32/46/1
usemtl Solar_Pannel_Frame
f 51/49/3 52/50/3 49/51/3 50/52/3
f 42/18/5 43/20/5 51/49/5 50/52/5
f 44/19/6 41/17/6 49/51/6 52/50/6
f 55/53/4 56/54/4 53/55/4 54/56/4
f 46/22/6 47/24/6 55/53/6 54/56/6
f 48/23/5 45/21/5 53/55/5 56/54/5
f 34/35/2 50/52/2 49/51/2 35/36/2
f 36/39/1 52/50/1 51/49/1 33/40/1
f 25/34/2 42/18/2 50/52/2 34/35/2
f 33/40/1 51/49/1 43/20/1 26/37/1
f 35/36/2 49/51/2 41/17/2 27/33/2
f 28/38/1 44/19/1 52/50/1 36/39/1
f 38/43/2 54/56/2 53/55/2 39/44/2
f 40/47/1 56/54/1 55/53/1 37/48/1
f 29/42/2 46/22/2 54/56/2 38/43/2
f 37/48/1 55/53/1 47/24/1 30/45/1
f 39/44/2 53/55/2 45/21/2 31/41/2
f 32/46/1 48/23/1 56/54/1 40/47/1
