# Blender v3.4.1 OBJ File: 'SA2138 Modules.blend'
# www.blender.org
mtllib Station_Module.mtl
o Cube.002_Cube.003
v -0.500000 -0.314293 0.314293
v -0.500000 0.314293 0.314293
v -0.500000 -0.314293 -0.314293
v -0.500000 0.314293 -0.314293
v 0.500000 -0.314293 0.314293
v 0.500000 0.314293 0.314293
v 0.500000 -0.314293 -0.314293
v 0.500000 0.314293 -0.314293
v -0.541904 -0.220005 0.220005
v -0.541904 0.220005 0.220005
v -0.541904 0.220005 -0.220005
v -0.541904 -0.220005 -0.220005
v 0.541904 -0.220005 -0.220005
v 0.541904 0.220005 -0.220005
v 0.541904 0.220005 0.220005
v 0.541904 -0.220005 0.220005
v -0.581910 -0.220005 0.220005
v -0.581910 0.220005 0.220005
v -0.581910 0.220005 -0.220005
v -0.581910 -0.220005 -0.220005
v 0.581910 -0.220005 -0.220005
v 0.581910 0.220005 -0.220005
v 0.581910 0.220005 0.220005
v 0.581910 -0.220005 0.220005
vt 0.375000 0.250000
vt 0.625000 0.250000
vt 0.625000 0.500000
vt 0.375000 0.500000
vt 0.375000 0.750000
vt 0.625000 0.750000
vt 0.625000 1.000000
vt 0.375000 1.000000
vt 0.125000 0.500000
vt 0.125000 0.750000
vt 0.875000 0.500000
vt 0.875000 0.750000
vt 0.625000 0.000000
vt 0.625000 0.000000
vt 0.375000 0.000000
vt 0.375000 0.000000
vt 0.625000 0.250000
vt 0.375000 0.250000
vt 0.625000 0.500000
vt 0.375000 0.500000
vt 0.625000 0.750000
vt 0.375000 0.750000
vt 0.625000 0.000000
vt 0.375000 0.000000
vt 0.625000 0.250000
vt 0.375000 0.250000
vt 0.375000 0.500000
vt 0.625000 0.500000
vt 0.625000 0.750000
vt 0.375000 0.750000
vn 0.0000 0.0000 -1.0000
vn 0.0000 0.0000 1.0000
vn 0.0000 -1.0000 0.0000
vn 0.0000 1.0000 0.0000
vn -0.9138 0.0000 0.4061
vn -0.9138 0.4061 0.0000
vn -0.9138 0.0000 -0.4061
vn -0.9138 -0.4061 0.0000
vn 0.9138 0.0000 -0.4061
vn 0.9138 0.4061 0.0000
vn 0.9138 0.0000 0.4061
vn 0.9138 -0.4061 0.0000
vn -1.0000 0.0000 0.0000
vn 1.0000 0.0000 0.0000
usemtl Material.001
s off
f 3/1/1 4/2/1 8/3/1 7/4/1
f 5/5/2 6/6/2 2/7/2 1/8/2
f 3/9/3 7/4/3 5/5/3 1/10/3
f 8/3/4 4/11/4 2/12/4 6/6/4
f 2/13/5 10/14/5 9/15/5 1/16/5
f 4/2/6 11/17/6 10/14/6 2/13/6
f 3/1/7 12/18/7 11/17/7 4/2/7
f 1/16/8 9/15/8 12/18/8 3/1/8
f 8/3/9 14/19/9 13/20/9 7/4/9
f 6/6/10 15/21/10 14/19/10 8/3/10
f 5/5/11 16/22/11 15/21/11 6/6/11
f 7/4/12 13/20/12 16/22/12 5/5/12
usemtl Material.002
f 10/14/2 18/23/2 17/24/2 9/15/2
f 17/24/13 18/23/13 19/25/13 20/26/13
f 11/17/4 19/25/4 18/23/4 10/14/4
f 12/18/1 20/26/1 19/25/1 11/17/1
f 9/15/3 17/24/3 20/26/3 12/18/3
f 21/27/14 22/28/14 23/29/14 24/30/14
f 14/19/1 22/28/1 21/27/1 13/20/1
f 15/21/4 23/29/4 22/28/4 14/19/4
f 16/22/2 24/30/2 23/29/2 15/21/2
f 13/20/3 21/27/3 24/30/3 16/22/3
